<?xml version="1.0" standalone="no"?>
<!DOCTYPE svg PUBLIC "-//W3C//DTD SVG 20010904//EN"
 "http://www.w3.org/TR/2001/REC-SVG-20010904/DTD/svg10.dtd">
<svg version="1.0" xmlns="http://www.w3.org/2000/svg"
 width="1443.000000pt" height="248.000000pt" viewBox="0 0 1443.000000 248.000000"
 preserveAspectRatio="xMidYMid meet">

<g transform="translate(0.000000,248.000000) scale(0.100000,-0.100000)"
fill="#000000" stroke="none">
<path d="M0 1240 l0 -1240 7215 0 7215 0 0 1240 0 1240 -7215 0 -7215 0 0
-1240z m5530 605 l0 -165 220 0 220 0 0 -70 0 -70 -220 0 -220 0 0 -350 c0
-346 0 -349 22 -370 20 -19 34 -20 220 -20 l198 0 0 -70 0 -70 -212 0 c-235 0
-264 7 -320 66 -59 63 -58 49 -58 694 l0 590 75 0 75 0 0 -165z m6980 95 l0
-70 -75 0 -75 0 0 70 0 70 75 0 75 0 0 -70z m-11700 -80 l0 -70 -38 0 c-25 0
-46 -7 -60 -20 l-22 -21 0 -454 0 -454 22 -21 c14 -13 35 -20 60 -20 l38 0 0
-70 0 -70 -52 0 c-96 1 -184 63 -207 147 -14 49 -15 924 -1 973 13 49 66 109
114 131 23 10 64 19 94 19 l52 0 0 -70z m1377 49 c76 -37 123 -117 123 -208
l0 -31 -75 0 -75 0 0 39 c0 31 -6 44 -26 60 -26 21 -37 21 -466 21 l-439 0
-24 -25 -25 -24 0 -446 0 -446 25 -24 24 -25 439 0 c429 0 440 0 466 21 l26
20 0 175 0 174 -155 0 -155 0 0 70 0 70 231 0 230 0 -3 -257 c-3 -254 -3 -259
-28 -303 -14 -24 -45 -58 -68 -75 l-44 -30 -487 -3 -487 -3 -44 24 c-28 14
-57 42 -78 72 l-33 48 3 498 3 497 30 43 c17 23 50 53 74 66 l44 23 475 0
c462 0 477 -1 519 -21z m448 2 c53 -24 112 -90 122 -138 4 -21 8 -236 8 -478
0 -242 -4 -457 -8 -478 -10 -48 -69 -114 -122 -138 -22 -10 -61 -19 -87 -19
l-48 0 0 70 0 70 34 0 c19 0 44 9 57 19 l24 19 0 457 0 457 -24 19 c-13 10
-38 19 -57 19 l-34 0 0 70 0 70 48 0 c26 0 65 -9 87 -19z m7051 8 c63 -16 47
-23 -18 -9 -45 10 -62 9 -109 -4 -31 -9 -64 -25 -73 -35 -47 -52 -71 -203 -51
-321 4 -25 4 -42 1 -39 -4 3 -11 45 -17 92 -12 97 -3 161 34 237 37 76 126
106 233 79z m102 -77 c51 -26 112 -65 137 -87 62 -56 108 -90 116 -88 4 1 15
-8 25 -20 l19 -22 -22 19 c-21 17 -23 17 -23 2 0 -17 0 -17 -72 -1 -13 2 -37
18 -54 33 -16 16 -52 40 -80 53 -27 12 -53 25 -58 27 -5 3 -5 -2 -1 -9 5 -8
-1 -6 -13 5 -12 10 -28 16 -37 12 -9 -3 -13 -2 -10 4 4 6 -9 10 -29 10 -20 0
-36 -4 -36 -10 0 -5 -7 -7 -15 -4 -8 4 -15 1 -15 -5 0 -6 -5 -10 -12 -8 -17 3
-61 -64 -48 -77 13 -13 13 -26 -1 -26 -5 0 -7 5 -4 10 3 6 2 10 -3 10 -5 0
-12 -9 -15 -20 -3 -13 -1 -18 6 -14 8 5 7 2 0 -7 -16 -16 -17 -109 -2 -109 6
0 9 -7 5 -15 -3 -8 0 -15 7 -15 9 0 9 -2 0 -8 -6 -4 -9 -19 -6 -34 3 -15 9
-25 14 -22 6 3 7 -8 4 -26 -4 -24 -2 -30 7 -24 8 5 7 1 -2 -11 -14 -17 -13
-18 4 -12 16 6 17 5 6 -8 -12 -14 -7 -20 14 -16 5 1 4 -5 -4 -13 -11 -15 -7
-20 12 -17 4 0 5 -6 2 -14 -4 -8 1 -17 10 -21 9 -3 14 -10 11 -14 -8 -12 6
-41 16 -34 5 3 6 -3 2 -12 -4 -12 -3 -15 5 -10 8 5 10 2 6 -8 -3 -9 -2 -16 4
-16 6 0 8 -9 5 -20 -4 -16 0 -20 18 -21 18 0 20 -2 8 -7 -14 -6 -15 -9 -3 -19
10 -10 15 -10 23 5 9 14 10 14 11 2 0 -9 -5 -21 -12 -28 -9 -9 -9 -12 0 -12 7
0 12 -7 12 -15 0 -8 7 -15 15 -15 8 0 12 -6 9 -14 -3 -8 3 -19 16 -26 11 -6
19 -18 18 -27 -2 -9 3 -18 11 -21 9 -3 11 0 6 9 -5 8 -4 11 1 6 9 -9 10 -13
13 -43 0 -8 6 -12 11 -9 6 3 10 1 10 -5 0 -6 4 -9 8 -6 5 3 31 -17 57 -44 27
-28 46 -50 42 -50 -4 0 -3 -9 3 -21 9 -15 15 -18 25 -9 10 8 15 8 21 -1 4 -8
3 -9 -4 -5 -19 11 -14 -9 6 -26 27 -24 114 -70 120 -63 3 3 12 -1 21 -9 9 -7
27 -17 41 -20 19 -6 21 -5 10 3 -12 8 -8 11 17 11 17 0 33 -4 35 -10 2 -5 18
-2 36 7 24 12 30 18 20 24 -10 7 -10 9 2 10 8 1 20 0 25 -1 6 -1 7 1 3 5 -4 4
0 14 8 22 8 8 12 19 9 24 -4 5 -1 9 5 9 7 0 9 8 5 19 -3 11 -2 22 4 25 5 3 7
34 4 69 -2 34 -5 74 -5 90 -1 15 -5 27 -11 27 -5 0 -7 7 -3 15 3 8 2 15 -3 15
-4 0 -6 12 -3 26 3 15 1 24 -4 21 -10 -5 -8 128 2 173 6 25 6 25 24 -10 11
-19 19 -39 19 -45 0 -5 -8 6 -19 25 -15 27 -19 30 -20 15 0 -11 6 -29 14 -40
7 -11 29 -62 48 -114 20 -51 38 -87 40 -80 3 8 13 -20 23 -61 24 -99 24 -242
0 -293 -23 -50 -32 -39 -11 13 19 48 20 198 2 275 -11 45 -12 35 -11 -107 0
-175 -2 -180 -79 -242 -33 -27 -45 -31 -99 -31 -55 1 -73 7 -156 50 -52 28
-113 67 -136 87 -48 42 -68 50 -39 16 l19 -23 -22 19 c-13 10 -21 22 -18 26 5
9 -49 62 -57 55 -2 -3 -13 5 -24 17 l-19 23 23 -19 c33 -28 27 -5 -8 27 -36
35 -149 183 -160 211 -11 30 -100 163 -100 151 0 -5 -7 -1 -15 9 -8 11 -15 27
-15 35 1 10 6 7 15 -9 25 -44 17 4 -9 57 -14 26 -37 84 -52 128 -24 71 -27 96
-28 221 -1 139 -1 141 28 182 46 67 102 94 176 85 19 -3 77 -26 128 -51z m60
2 c-5 -5 -98 45 -98 52 0 2 23 -7 51 -22 28 -14 49 -27 47 -30z m27 -24 c3 -6
-1 -7 -9 -4 -18 7 -21 14 -7 14 6 0 13 -4 16 -10z m75 -57 l45 -48 -50 45
c-27 25 -52 46 -54 48 -2 1 0 2 5 2 6 0 30 -21 54 -47z m-2394 8 c-5 -8 67
-23 119 -26 68 -3 120 -32 206 -114 49 -47 87 -86 85 -88 -2 -2 9 -17 25 -33
16 -16 29 -37 29 -47 0 -11 4 -23 9 -28 5 -6 11 -19 13 -30 1 -11 6 -22 10
-25 3 -3 9 -27 12 -55 l6 -50 -20 54 c-25 67 -30 73 -30 33 0 -17 8 -38 17
-48 15 -14 15 -18 2 -28 -18 -13 -13 -50 6 -42 13 5 15 -17 2 -30 -3 -4 -1
-16 5 -28 9 -17 8 -19 -3 -8 -22 20 -24 15 -23 -56 0 -37 -3 -75 -8 -84 -4 -9
-4 -19 1 -22 5 -3 14 15 21 39 7 25 15 44 17 41 2 -2 -4 -30 -13 -62 -10 -33
-20 -51 -22 -41 -7 32 -19 17 -30 -35 -9 -46 -8 -50 4 -33 8 10 14 15 14 9 0
-15 -14 -30 -32 -37 -10 -3 -18 -12 -17 -19 0 -10 2 -10 6 0 2 6 9 12 14 12 6
0 -4 -20 -21 -45 -17 -25 -33 -45 -36 -45 -7 0 5 20 24 43 25 29 4 32 -24 4
-15 -15 -23 -27 -18 -27 5 0 -7 -10 -26 -22 -19 -12 -46 -34 -60 -49 -14 -15
-39 -31 -55 -35 -17 -4 -35 -11 -42 -16 -7 -5 -17 -7 -23 -3 -6 4 -16 2 -23
-3 -19 -15 -85 -25 -182 -26 -74 -1 -106 4 -180 28 -49 17 -95 35 -101 40 -32
31 -65 56 -73 56 -4 0 -20 18 -34 39 -36 54 -79 93 -88 79 -4 -7 -11 -3 -18
10 -17 32 -13 50 6 27 14 -18 15 -18 9 -2 -3 10 -6 23 -6 29 0 6 -7 8 -15 4
-10 -3 -20 5 -30 24 -9 17 -13 30 -9 30 4 0 1 7 -6 15 -6 8 -13 52 -15 97 -4
76 -3 78 4 23 4 -33 16 -87 26 -120 17 -57 19 -58 25 -30 4 19 2 36 -7 46 -7
9 -10 19 -6 22 3 4 1 7 -7 7 -9 0 -10 3 -1 14 9 10 8 15 -4 20 -8 3 -15 10
-15 16 0 6 5 8 10 5 7 -4 9 2 5 17 -3 12 -7 33 -8 46 0 12 -6 22 -12 22 -5 0
-3 5 5 10 12 7 12 10 1 10 -10 0 -12 10 -7 43 3 23 8 54 10 69 5 35 59 124
100 164 17 17 60 61 96 99 36 37 67 68 70 68 3 0 11 7 18 14 8 7 18 11 23 8 5
-4 9 -2 9 3 0 5 10 12 23 15 21 6 21 6 -3 -13 -14 -11 -29 -20 -35 -20 -5 0
-21 -9 -35 -20 l-25 -20 23 0 c13 0 22 6 22 15 0 9 6 15 13 14 6 -1 28 5 48
14 19 9 48 19 64 23 l29 7 -25 10 c-13 5 -19 11 -12 14 7 2 22 -1 35 -8 30
-17 82 -24 73 -10 -3 6 -19 11 -35 11 -16 0 -32 5 -36 11 -5 9 3 10 28 5 19
-3 46 -2 59 3 31 12 82 14 75 2z m2164 -24 c8 -3 -3 -5 -25 -5 -22 0 -32 2
-22 5 10 3 14 9 10 16 -5 9 -3 9 8 1 8 -6 21 -14 29 -17z m-2370 -7 c13 -8 13
-10 -2 -10 -9 0 -20 5 -23 10 -8 13 5 13 25 0z m2675 -40 c10 -11 16 -20 13
-20 -3 0 -13 9 -23 20 -10 11 -16 20 -13 20 3 0 13 -9 23 -20z m-6130 -39 c47
-22 99 -74 114 -114 7 -18 11 -179 11 -458 l0 -429 -435 0 c-475 0 -477 0
-539 58 -59 56 -66 86 -66 315 l0 207 445 0 445 0 0 130 c0 117 -2 132 -20
150 -19 19 -33 20 -445 20 l-425 0 0 70 0 70 438 0 c404 0 440 -2 477 -19z
m1217 -16 c49 -35 84 -92 94 -153 l7 -42 -77 0 c-70 0 -76 2 -76 20 0 12 -11
32 -25 45 l-24 25 -326 0 -326 0 -24 -25 c-23 -22 -25 -31 -25 -123 0 -83 3
-104 19 -123 l19 -24 359 -5 360 -5 41 -27 c22 -15 54 -49 69 -75 27 -46 28
-53 28 -183 0 -130 -1 -137 -28 -183 -15 -26 -47 -60 -69 -75 l-42 -27 -360
-3 c-247 -2 -373 0 -399 8 -59 17 -122 86 -136 148 -7 28 -10 56 -6 62 3 5 37
10 76 10 63 0 69 -2 69 -20 0 -12 11 -32 25 -45 l24 -25 326 0 326 0 24 25
c23 22 25 31 25 123 0 83 -3 104 -19 123 l-19 24 -360 5 -360 5 -44 30 c-23
17 -54 51 -68 75 -23 42 -25 55 -25 180 0 121 2 139 22 177 23 43 69 84 113
102 16 6 166 9 397 8 l371 -2 44 -30z m1778 -35 l0 -70 -298 0 c-286 0 -299
-1 -320 -20 -22 -21 -22 -22 -22 -440 l0 -420 -75 0 -75 0 0 425 c0 464 0 467
58 529 59 63 75 66 420 66 l312 0 0 -70z m2249 36 c23 -16 54 -50 69 -75 l27
-46 3 -432 3 -433 -76 0 -75 0 0 415 0 416 -25 24 -24 25 -324 0 c-313 0 -325
-1 -351 -21 l-26 -20 0 -420 0 -419 -75 0 -75 0 0 510 0 511 453 -3 454 -3 42
-29z m2936 15 c47 -22 99 -74 114 -114 7 -18 11 -179 11 -458 l0 -429 -70 0
-70 0 0 415 0 416 -25 24 -24 25 -236 0 c-222 0 -236 -1 -255 -20 -19 -19 -20
-33 -20 -440 l0 -420 -75 0 -75 0 0 415 0 416 -25 24 -24 25 -234 0 c-221 0
-234 -1 -255 -20 -22 -21 -22 -22 -22 -440 l0 -420 -75 0 -75 0 0 510 0 510
698 0 c658 0 699 -1 737 -19z m435 -491 l0 -510 -75 0 -75 0 0 510 0 510 75 0
75 0 0 -510z m1230 440 l0 -69 -430 -3 c-397 -3 -431 -4 -447 -21 -17 -16 -18
-44 -18 -348 l0 -331 24 -19 c22 -18 45 -19 447 -19 l424 0 0 -70 0 -70 -437
0 c-405 0 -441 2 -478 19 -47 22 -99 74 -114 114 -7 18 -11 155 -11 377 0 222
4 359 11 377 15 40 67 92 114 114 37 17 73 19 478 19 l437 0 0 -70z m-4183
-67 c-3 -10 -5 -2 -5 17 0 19 2 27 5 18 2 -10 2 -26 0 -35z m419 -15 c3 -4 14
-8 26 -8 11 0 22 -8 25 -20 3 -11 10 -20 16 -20 6 0 8 -3 5 -6 -9 -8 39 -109
52 -110 5 -1 15 -2 20 -3 6 0 10 -6 10 -12 0 -6 10 -25 22 -42 13 -18 23 -34
23 -37 0 -3 3 -4 8 -2 4 1 7 -5 7 -14 0 -8 5 -12 10 -9 6 4 10 3 9 -2 -4 -22
3 -34 26 -45 19 -8 22 -14 13 -20 -9 -5 -6 -8 8 -8 15 0 24 -8 28 -24 13 -51
-54 -195 -92 -197 -15 0 -15 -1 2 -8 15 -6 7 -13 -40 -37 -97 -50 -134 -59
-177 -40 -20 8 -37 20 -37 25 0 6 -7 11 -16 11 -18 0 -144 125 -145 143 0 7
-4 3 -9 -8 -7 -17 -9 -15 -9 12 -1 17 -9 39 -18 49 -10 10 -16 19 -13 20 3 2
-3 12 -12 24 -10 11 -16 20 -13 20 2 0 -6 24 -19 53 -13 28 -26 73 -28 100 -5
41 -2 53 25 90 45 63 97 114 97 94 0 -29 18 -28 36 2 10 17 27 32 38 34 35 7
117 4 122 -5z m-518 -88 c0 -9 -3 -7 -8 5 -5 11 -8 29 -8 40 0 16 2 15 8 -5 4
-14 8 -32 8 -40z m750 12 c12 -8 22 -23 22 -33 0 -16 -2 -17 -27 -4 -15 8 -29
12 -31 10 -10 -9 20 -61 45 -79 15 -11 23 -14 19 -8 -5 8 -2 10 8 6 9 -3 16
-10 16 -16 0 -5 5 -6 12 -2 6 4 8 3 4 -4 -3 -6 -18 -9 -31 -6 -16 3 -25 0 -25
-8 0 -8 -3 -9 -8 -3 -4 6 -19 18 -34 28 -34 21 -55 89 -39 123 11 25 25 24 69
-4z m-741 -64 c-3 -8 -6 -5 -6 6 -1 11 2 17 5 13 3 -3 4 -12 1 -19z m41 -90
c23 -52 21 -65 -1 -20 -16 29 -33 80 -25 72 3 -3 15 -26 26 -52z m822 -22 c0
-12 -5 -7 -19 24 -11 24 -11 24 3 6 9 -11 16 -24 16 -30z m-699 -219 c16 -22
29 -44 29 -49 0 -15 -87 117 -94 143 -4 14 2 8 15 -15 11 -21 34 -57 50 -79z
m760 92 c14 -27 31 -84 22 -75 -9 8 -43 96 -37 96 2 0 8 -10 15 -21z m36 -111
c-3 -8 -6 -5 -6 6 -1 11 2 17 5 13 3 -3 4 -12 1 -19z m-746 -65 c13 -16 12
-17 -3 -4 -17 13 -22 21 -14 21 2 0 10 -8 17 -17z m39 -54 c15 -28 5 -23 -15
7 -9 15 -12 23 -6 20 6 -4 16 -16 21 -27z m617 -66 c-2 -16 -4 -3 -4 27 0 30
2 43 4 28 2 -16 2 -40 0 -55z m-3236 -37 c35 -38 55 -64 44 -58 -32 18 -65 49
-65 61 0 6 -9 15 -20 21 -20 11 -50 55 -33 49 5 -2 39 -35 74 -73z m2680 22
c17 -24 18 -29 6 -19 -18 14 -42 51 -33 51 3 0 15 -15 27 -32z m-1881 -62 c0
-2 -8 -10 -17 -17 -16 -13 -17 -12 -4 4 13 16 21 21 21 13z m1975 -36 c10 -11
16 -20 13 -20 -3 0 -13 9 -23 20 -10 11 -16 20 -13 20 3 0 13 -9 23 -20z
m-2684 -7 c13 -16 12 -17 -3 -4 -10 7 -18 15 -18 17 0 8 8 3 21 -13z m649 -3
c-27 -22 -91 -53 -97 -46 -2 2 11 9 29 16 18 8 44 22 57 32 32 25 42 23 11 -2z
m-580 -35 c22 -12 23 -14 4 -12 -11 0 -26 7 -33 14 -15 17 -3 16 29 -2z m143
-41 c41 -14 41 -14 6 -9 -19 3 -55 12 -80 20 -44 14 -44 14 -6 8 21 -3 57 -12
80 -19z m317 22 c0 -2 -15 -9 -32 -15 -30 -10 -31 -9 -14 4 18 14 46 20 46 11z
m2266 -37 c4 -8 1 -8 -14 0 -12 6 -24 16 -28 22 -4 8 -1 8 14 0 12 -6 24 -16
28 -22z m-2356 9 c-14 -5 -61 -11 -105 -13 l-80 -4 79 9 c43 5 84 11 90 14 6
2 18 4 26 5 8 0 4 -5 -10 -11z m2400 -33 c7 -8 35 -27 61 -42 27 -14 47 -28
45 -31 -6 -5 -70 33 -109 65 -16 13 -24 23 -19 23 5 0 15 -7 22 -15z m394 -49
c-10 -26 -93 -58 -149 -58 -27 0 -68 7 -90 16 l-40 16 35 -6 c91 -15 113 -16
154 -4 25 7 55 23 67 36 24 26 33 26 23 0z"/>
<path d="M9850 882 c0 -5 7 -15 15 -22 8 -7 15 -8 15 -2 0 5 -7 15 -15 22 -8
7 -15 8 -15 2z"/>
<path d="M9884 838 c-4 -7 -4 -10 1 -6 4 4 14 0 21 -10 7 -9 15 -14 18 -11 3
3 -2 14 -13 23 -15 14 -21 15 -27 4z"/>
<path d="M7475 1750 c4 -6 13 -9 21 -6 8 3 14 2 14 -3 0 -5 9 -11 20 -14 11
-3 17 -1 14 4 -3 6 15 8 48 4 35 -3 46 -2 33 3 -35 16 -158 26 -150 12z"/>
<path d="M7660 1721 c0 -5 9 -7 20 -4 12 3 20 0 20 -6 0 -7 4 -9 10 -6 5 3 20
0 32 -7 13 -7 29 -11 36 -10 6 2 12 -2 12 -9 0 -15 68 -79 84 -79 16 0 48 -68
40 -82 -5 -7 -2 -9 8 -5 19 7 52 -29 73 -79 8 -21 18 -34 21 -31 10 10 -39
117 -53 117 -7 0 -13 4 -13 8 0 15 -157 172 -172 172 -7 0 -22 7 -32 15 -22
16 -86 21 -86 6z"/>
<path id="lima" d="M7366 1639 c-8 -12 -19 -18 -25 -14 -7 3 -11 3 -10 -2 3 -19 -2 -27
-9 -15 -7 9 -15 7 -35 -12 -14 -13 -27 -23 -29 -22 -2 0 4 -5 12 -12 13 -11
11 -12 -12 -7 -18 5 -28 3 -28 -4 0 -6 7 -11 16 -11 8 0 12 -4 9 -10 -3 -5 -3
-16 1 -22 6 -9 11 -5 16 12 6 20 7 18 3 -8 -3 -23 -1 -31 7 -26 6 4 8 3 5 -3
-3 -5 1 -20 10 -32 12 -18 17 -20 24 -10 7 11 9 11 9 -2 0 -9 9 -24 20 -34 11
-10 18 -20 16 -23 -3 -2 14 -32 36 -66 48 -71 68 -93 68 -76 0 6 5 8 10 5 6
-3 10 2 11 12 1 12 3 10 8 -7 4 -15 14 -24 22 -22 9 1 16 -4 16 -13 0 -8 -4
-12 -9 -9 -4 3 -8 -2 -8 -11 0 -11 5 -15 15 -11 8 3 14 0 12 -7 -1 -7 -11 -15
-22 -18 -14 -4 -19 -13 -17 -30 2 -19 0 -21 -10 -11 -6 6 -15 12 -19 12 -9 0
-57 -147 -63 -190 -2 -19 -7 -43 -11 -52 -8 -21 -2 -23 25 -6 24 15 35 5 21
-19 -6 -10 -11 -12 -11 -5 0 6 -5 12 -11 12 -5 0 -8 -4 -4 -9 3 -5 0 -13 -6
-17 -8 -4 -9 -3 -5 4 4 7 2 12 -4 12 -15 0 -33 -49 -31 -85 2 -53 31 -67 139
-64 66 2 96 7 99 16 3 7 10 10 16 6 7 -4 8 8 3 38 -4 24 -11 45 -16 47 -6 2
-5 12 1 24 6 11 7 23 3 27 -5 3 -11 15 -12 26 -6 33 -33 79 -61 103 -14 13
-20 21 -13 17 15 -8 16 9 2 36 -16 28 -40 24 -38 -6 1 -14 6 -25 11 -25 5 0 5
-9 2 -20 -4 -13 -1 -22 8 -26 9 -3 13 -13 10 -25 -4 -13 0 -19 11 -19 14 0 15
-4 6 -20 -7 -13 -7 -20 -1 -20 6 0 8 -7 5 -15 -4 -8 -2 -15 4 -15 5 0 13 -8
17 -17 5 -15 4 -16 -6 -6 -19 19 -29 16 -29 -9 l0 -22 -16 22 c-9 13 -21 21
-28 19 -13 -5 -38 18 -29 27 3 3 0 12 -6 20 -8 10 -9 16 -1 21 7 4 7 12 0 25
-7 13 -6 20 3 23 9 4 9 6 0 6 -7 1 -10 8 -7 16 5 12 10 13 20 4 11 -9 13 -2
10 35 -1 25 2 48 8 50 7 3 6 5 -1 5 -7 1 -13 6 -13 13 0 9 3 9 12 0 15 -15 32
-16 23 -2 -3 6 -2 10 4 10 6 0 22 -25 37 -56 14 -30 29 -53 32 -50 3 3 16 -16
29 -44 13 -27 28 -52 33 -55 6 -3 10 -20 10 -36 0 -17 4 -28 10 -24 5 3 7 0 5
-8 -3 -7 3 -21 13 -30 16 -15 25 -15 68 -5 59 14 94 50 76 78 -6 10 -7 22 -1
31 5 8 9 9 9 3 0 -15 26 -25 45 -18 23 9 18 32 -7 37 -20 4 -20 4 4 6 31 1 47
19 27 32 -12 8 -12 10 0 18 9 6 11 15 6 27 -4 11 -7 27 -6 37 2 11 -5 17 -18
17 -12 0 -21 5 -21 10 0 6 -13 10 -29 10 -17 0 -33 5 -36 10 -3 6 -22 10 -41
10 -19 0 -34 4 -34 9 0 7 -52 21 -144 38 -30 5 -32 13 -5 14 l24 1 -25 8 c-24
8 -23 8 8 9 18 1 31 -3 27 -8 -6 -11 10 -16 75 -27 24 -3 54 -12 65 -19 44
-28 195 -46 195 -24 0 6 -9 9 -20 6 -11 -3 -20 -2 -20 3 0 4 13 10 28 13 23 5
29 11 28 31 -1 14 -5 28 -9 32 -4 4 -1 14 6 22 8 11 9 16 1 19 -6 2 -20 10
-30 18 -18 14 -18 14 4 10 27 -5 30 15 2 22 -11 3 -18 9 -15 13 3 5 -3 16 -12
26 -17 17 -17 17 5 12 21 -6 22 -5 10 10 -8 9 -23 34 -33 55 -23 45 -29 50
-64 52 -21 1 -27 7 -29 30 -2 17 -9 36 -15 44 -10 12 -9 13 3 7 8 -4 6 -1 -4
8 -10 8 -23 13 -27 10 -5 -3 -6 2 -3 10 5 13 -1 16 -27 16 -29 -1 -32 -3 -18
-13 14 -11 14 -14 -2 -31 -10 -10 -16 -23 -12 -29 4 -6 1 -7 -6 -3 -8 5 -14 0
-18 -13 -5 -22 -27 -28 -38 -12 -3 5 4 12 15 16 24 8 43 39 46 78 3 39 -28 32
-38 -8 -6 -25 -7 -23 -5 13 2 35 -1 42 -16 42 -11 0 -15 5 -11 11 4 8 -1 9
-17 4 -34 -10 -47 -23 -52 -48 -4 -18 -4 -18 -6 5 -1 31 -30 65 -41 48 -4 -6
-14 -8 -23 -4 -9 3 -15 9 -12 14 2 4 -9 7 -26 8 -18 0 -32 -5 -36 -14 -3 -8
-15 -14 -26 -14 -20 0 -20 1 -2 13 12 9 14 16 7 21 -6 3 -17 -3 -26 -15z m24
-54 c-7 -8 -20 -15 -29 -15 -11 0 -8 5 9 14 33 19 35 19 20 1z m-59 -38 c-10
-9 -11 -8 -5 6 3 10 9 15 12 12 3 -3 0 -11 -7 -18z m238 -24 c0 -23 -2 -24 -8
-9 -5 12 -11 -8 -21 -63 -10 -58 -18 -81 -28 -81 -11 0 -12 3 -3 14 6 8 11 18
10 22 -1 5 0 11 1 14 1 3 3 14 4 25 10 74 19 105 32 105 9 0 14 -10 13 -27z
m-253 -41 c-17 -16 -18 -16 -5 5 7 12 15 20 18 17 3 -2 -3 -12 -13 -22z m476
-68 c-21 -29 -47 -41 -38 -19 3 9 2 13 -3 10 -5 -3 -12 -1 -16 5 -3 5 6 12 20
16 20 5 24 11 19 26 -5 18 -5 19 14 2 19 -16 20 -18 4 -40z m-425 20 c-3 -3
-12 -4 -19 -1 -8 3 -5 6 6 6 11 1 17 -2 13 -5z m278 -13 c3 -5 1 -12 -4 -15
-5 -3 -11 1 -15 9 -6 16 9 21 19 6z m229 -41 c-8 -8 -15 -6 -25 6 -9 12 -10
15 -1 10 7 -4 12 -2 12 5 0 10 3 10 12 1 8 -8 9 -15 2 -22z m-141 -18 c-3 -12
-10 -22 -16 -22 -5 0 -29 -16 -53 -35 -45 -37 -54 -41 -54 -24 0 5 5 7 10 4 6
-3 10 -2 10 3 0 5 18 22 40 37 22 15 40 33 40 41 0 7 6 14 13 17 16 6 17 5 10
-21z m117 -2 c0 -5 -2 -10 -4 -10 -2 0 -12 -3 -22 -7 -16 -6 -17 -5 -4 10 17
19 30 22 30 7z m-339 -41 c-6 -16 -10 -18 -10 -7 -1 22 12 55 16 42 2 -6 -1
-22 -6 -35z m379 6 c0 -8 -4 -15 -10 -15 -5 0 -7 7 -4 15 4 8 8 15 10 15 2 0
4 -7 4 -15z m-20 -31 c0 -2 -9 0 -20 6 -11 6 -20 13 -20 16 0 2 9 0 20 -6 11
-6 20 -13 20 -16z m-77 -16 c-34 -16 -36 -45 -3 -60 24 -10 27 -15 18 -31 -7
-14 -7 -17 1 -13 6 4 11 2 11 -4 0 -14 -53 -4 -58 11 -2 5 -8 7 -12 4 -5 -3
-12 0 -16 6 -4 8 -3 9 4 5 7 -4 12 -2 12 3 0 6 -4 12 -10 12 -5 1 -14 2 -19 3
-18 2 -24 16 -8 16 10 0 17 5 17 10 0 6 3 9 8 8 4 -2 17 7 30 20 12 12 28 22
35 21 6 0 2 -5 -10 -11z m43 -15 c-10 -11 -37 -12 -30 -2 3 5 12 9 21 9 9 0
13 -3 9 -7z m-238 -10 c-10 -2 -18 -8 -18 -13 0 -5 -8 -6 -17 -3 -15 6 -15 7
3 14 10 4 26 7 34 7 10 0 9 -2 -2 -5z m67 -43 c-3 -5 -12 -10 -18 -10 -7 0 -6
4 3 10 19 12 23 12 15 0z m52 -46 c-3 -3 -12 -4 -19 -1 -8 3 -5 6 6 6 11 1 17
-2 13 -5z m-42 -103 c24 -22 35 -27 44 -18 8 8 11 8 11 -1 0 -7 7 -12 15 -12
8 0 15 -5 15 -11 0 -6 -8 -8 -19 -4 -17 5 -19 2 -15 -21 5 -25 -10 -54 -27
-54 -5 0 -9 8 -9 18 0 13 -2 14 -9 4 -6 -10 -10 -8 -14 8 -4 17 -11 21 -26 17
-14 -3 -18 -1 -14 9 3 8 9 11 15 8 5 -3 3 7 -5 22 -8 16 -13 37 -12 47 2 9 -1
17 -6 17 -5 0 -9 -7 -9 -15 0 -22 -17 -18 -23 5 -3 11 -1 20 5 20 5 0 7 4 3
10 -11 17 48 -18 80 -49z m-52 -36 c4 -8 2 -17 -3 -20 -6 -4 -10 -4 -10 -1 0
2 -3 11 -6 20 -3 9 -2 16 4 16 5 0 12 -7 15 -15z m217 -25 c18 -16 37 -27 44
-23 7 3 6 1 -1 -8 -10 -10 -16 -10 -25 -1 -15 15 -31 16 -22 0 5 -7 3 -8 -5
-4 -7 5 -10 14 -7 22 3 8 0 14 -8 14 -7 0 -13 7 -13 15 0 20 0 20 37 -15z m50
24 c0 -8 -19 -13 -24 -6 -3 5 1 9 9 9 8 0 15 -2 15 -3z m-92 -84 c-1 -17 -8
-26 -20 -26 -16 0 -16 2 -1 18 15 17 15 18 -3 18 -11 0 -26 -6 -34 -12 -8 -7
-7 -4 2 7 10 12 26 21 38 21 15 0 20 -6 18 -26z m-101 -45 c0 -8 -7 -15 -15
-15 -12 0 -12 3 -2 15 7 8 13 15 15 15 1 0 2 -7 2 -15z m83 -41 c0 -8 -19 -13
-24 -6 -3 5 1 9 9 9 8 0 15 -2 15 -3z m-313 -36 c-3 -7 -5 -2 -5 12 0 14 2 19
5 13 2 -7 2 -19 0 -25z m58 -18 c3 -5 1 -10 -4 -10 -6 0 -11 5 -11 10 0 6 2
10 4 10 3 0 8 -4 11 -10z"/>
<path d="M7180 1625 c-7 -9 -8 -15 -2 -15 5 0 12 7 16 15 3 8 4 15 2 15 -2 0
-9 -7 -16 -15z"/>
<path d="M7792 1576 c7 -8 15 -12 17 -11 5 6 -10 25 -20 25 -5 0 -4 -6 3 -14z"/>
<path d="M7831 1557 c2 -1 13 -9 24 -17 19 -14 19 -14 6 3 -7 9 -18 17 -24 17
-6 0 -8 -1 -6 -3z"/>
<path id="limon" d="M7166 1505 c-3 -8 -11 -15 -18 -15 -7 0 -19 -9 -26 -21 -8 -12 -9
-18 -3 -14 6 3 11 -1 11 -10 0 -9 -4 -14 -9 -11 -5 3 -12 -1 -15 -10 -3 -9
-11 -12 -18 -8 -10 6 -10 4 0 -8 10 -13 10 -17 -4 -22 -9 -4 -14 -9 -11 -13 4
-3 1 -13 -6 -21 -10 -13 -9 -15 11 -10 18 5 21 4 12 -7 -12 -14 -4 -41 13 -48
7 -3 33 -1 59 3 26 3 45 3 42 -2 -3 -4 -13 -8 -22 -8 -16 -1 -16 -1 1 -11 19
-11 23 -29 6 -29 -5 0 -7 5 -4 10 3 6 0 10 -9 10 -8 0 -21 3 -30 6 -11 4 -16
1 -16 -11 0 -10 5 -13 12 -9 7 4 8 3 4 -5 -9 -13 -26 -5 -26 12 0 17 -48 38
-57 25 -3 -7 -1 -8 5 -4 7 4 12 2 12 -3 0 -6 -7 -11 -15 -11 -21 0 -19 -8 13
-36 16 -14 20 -22 10 -18 -10 3 -18 10 -18 15 0 19 -26 8 -37 -16 -12 -27 -4
-39 21 -29 21 8 20 0 -1 -22 -16 -15 -16 -17 3 -31 18 -15 18 -15 -5 -10 -22
6 -23 5 -8 -10 14 -14 18 -14 34 -2 16 13 17 12 5 -3 -8 -10 -24 -20 -35 -24
-21 -7 -21 -8 3 -14 19 -5 25 -12 25 -35 0 -30 18 -44 31 -24 4 8 3 9 -4 5 -7
-4 -12 -1 -12 7 0 10 7 13 19 10 11 -3 17 -11 15 -18 -4 -9 3 -11 23 -8 24 4
25 2 11 -7 -25 -16 -24 -44 2 -37 11 3 23 1 26 -4 5 -8 -9 -13 -28 -10 -7 1
-10 -19 -7 -46 0 -5 7 -7 15 -5 10 2 14 -3 12 -15 -2 -11 6 -22 20 -28 23 -10
30 -25 12 -25 -5 0 -10 -4 -10 -9 0 -11 48 -25 73 -22 10 1 16 -3 15 -11 -2
-7 8 -14 21 -16 15 -2 21 0 17 7 -5 7 -1 8 10 4 11 -4 15 -3 10 5 -3 6 -2 14
4 17 6 4 8 21 4 41 -4 23 -2 34 5 34 7 0 9 5 6 10 -3 6 0 10 7 10 10 0 9 3 -2
11 -11 8 -12 12 -2 16 6 2 12 19 13 36 0 27 2 29 9 12 8 -19 9 -19 9 3 1 12
-3 22 -9 22 -5 0 -7 7 -3 16 4 11 8 12 13 4 4 -7 10 2 14 21 8 42 1 47 -24 18
-15 -17 -23 -20 -26 -11 -3 6 -11 9 -16 6 -7 -4 -8 -2 -4 5 4 6 12 9 17 6 5
-4 16 1 25 10 10 10 24 13 36 9 18 -5 20 -3 16 19 -3 17 -1 24 7 21 6 -3 12 1
12 9 0 17 -57 10 -64 -9 -3 -8 -12 -14 -21 -14 -12 0 -9 7 11 28 15 16 24 32
20 36 -4 4 1 4 12 0 14 -5 17 -4 10 3 -5 6 -20 14 -32 18 -17 5 -23 2 -23 -9
0 -9 -4 -16 -10 -16 -5 0 -10 7 -10 16 0 8 -17 22 -37 30 -72 28 -86 35 -81
39 2 2 35 -6 74 -19 100 -34 119 -37 138 -23 17 12 16 15 -10 46 -15 19 -36
47 -45 65 -9 17 -22 30 -29 28 -6 -1 -9 1 -6 6 3 5 -12 28 -33 51 -36 39 -40
41 -50 24 -6 -10 -10 -13 -11 -8 0 6 4 17 10 25 10 16 -5 40 -24 40 -6 0 -2
-7 8 -15 11 -8 15 -15 9 -15 -7 0 -15 5 -18 10 -4 6 -12 7 -18 3 -7 -3 -4 3 6
14 14 16 15 22 5 30 -21 15 -65 14 -72 -2z m44 -20 c0 -2 -6 -8 -13 -14 -10
-8 -14 -7 -14 2 0 8 6 14 14 14 7 0 13 -1 13 -2z m30 -59 c10 -13 10 -17 3
-12 -9 5 -13 1 -13 -13 0 -23 -16 -36 -25 -21 -4 6 0 19 8 28 8 9 12 24 9 32
-5 16 -4 15 18 -14z m-66 -12 c5 -14 4 -15 -9 -4 -17 14 -19 20 -6 20 5 0 12
-7 15 -16z m24 -59 c-3 -3 -9 2 -12 12 -6 14 -5 15 5 6 7 -7 10 -15 7 -18z
m37 -35 c3 -5 1 -10 -4 -10 -6 0 -11 5 -11 10 0 6 2 10 4 10 3 0 8 -4 11 -10z
m115 -70 c0 -5 -7 -7 -15 -4 -8 4 -15 8 -15 10 0 2 7 4 15 4 8 0 15 -4 15 -10z
m-220 -40 c0 -5 -2 -10 -4 -10 -3 0 -8 5 -11 10 -3 6 -1 10 4 10 6 0 11 -4 11
-10z m200 -65 c0 -8 -6 -12 -14 -9 -8 3 -17 1 -20 -5 -4 -6 -14 -7 -23 -4 -12
5 -14 3 -8 -7 5 -8 3 -11 -6 -8 -8 3 -26 -1 -41 -8 -17 -9 -29 -10 -33 -4 -3
6 4 10 17 10 19 0 20 2 8 11 -13 9 -13 10 2 6 9 -3 19 -3 23 1 4 4 11 8 16 8
5 1 13 2 18 3 5 0 11 10 14 22 5 17 9 19 26 9 12 -6 21 -17 21 -25z m-66 16
c3 -5 -6 -11 -21 -14 -26 -5 -26 -4 -8 9 22 17 22 17 29 5z m86 -72 c0 -5 -4
-8 -9 -5 -5 4 -11 0 -14 -6 -2 -7 -8 -9 -13 -5 -5 4 -2 12 6 17 20 13 30 12
30 -1z m-66 -27 c-30 -29 -94 -64 -87 -46 3 8 19 22 36 31 17 8 37 22 45 30 8
8 17 12 19 9 3 -3 -3 -13 -13 -24z m-54 -72 c0 -5 -5 -10 -11 -10 -5 0 -7 5
-4 10 3 6 8 10 11 10 2 0 4 -4 4 -10z m-30 -74 c0 -3 -4 -8 -10 -11 -5 -3 -10
-1 -10 4 0 6 5 11 10 11 6 0 10 -2 10 -4z m113 -13 c-3 -7 -9 -10 -14 -7 -14
8 -11 21 5 21 8 0 12 -6 9 -14z m20 -44 c5 -3 -6 -6 -22 -7 -17 0 -31 3 -31 8
0 5 7 7 15 4 8 -4 15 -1 15 7 0 7 3 8 8 3 4 -5 11 -12 15 -15z m-69 -34 c-4
-8 -7 -15 -9 -15 -2 0 -5 7 -9 15 -3 9 0 15 9 15 9 0 12 -6 9 -15z m61 5 c3
-5 1 -10 -4 -10 -6 0 -11 5 -11 10 0 6 2 10 4 10 3 0 8 -4 11 -10z"/>
<path d="M7886 1477 c3 -10 9 -15 12 -12 3 3 0 11 -7 18 -10 9 -11 8 -5 -6z"/>
<path d="M7030 1465 c-8 -9 -8 -15 -2 -15 12 0 26 19 19 26 -2 2 -10 -2 -17
-11z"/>
<path d="M6994 1413 c-3 -10 -14 -39 -25 -65 -20 -49 -27 -108 -9 -78 5 9 10
22 12 30 2 8 9 21 16 28 7 8 10 17 7 22 -6 10 15 62 30 72 6 5 2 8 -8 8 -10 0
-20 -8 -23 -17z"/>
<path d="M7110 963 c0 -5 8 -17 17 -28 14 -18 15 -18 9 -2 -3 10 -6 23 -6 28
0 5 -4 9 -10 9 -5 0 -10 -3 -10 -7z"/>
<path d="M7495 880 c3 -5 8 -10 11 -10 2 0 4 5 4 10 0 6 -5 10 -11 10 -5 0 -7
-4 -4 -10z"/>
<path d="M7830 886 c0 -2 8 -10 18 -17 15 -13 16 -12 3 4 -13 16 -21 21 -21
13z"/>
<path d="M7919 873 c-13 -16 -12 -17 4 -4 16 13 21 21 13 21 -2 0 -10 -8 -17
-17z"/>
<path d="M7788 773 c6 -2 9 -10 6 -15 -4 -7 -2 -8 5 -4 13 9 5 26 -12 25 -9 0
-8 -2 1 -6z"/>
<path d="M3130 970 c0 -186 -37 -170 392 -170 l348 0 0 150 0 150 -370 0 -370
0 0 -130z"/>
</g>
</svg>
