<svg height="512pt" viewBox="0 -90 512 512" width="512pt" xmlns="http://www.w3.org/2000/svg"><path d="M353.809 50.535c-27.774-16.52-62.813-25.617-98.657-25.617-34.386 0-69.097 9.148-97.742 25.758l-11.629 6.742 13.211 2.469c39.098 7.3 73.39 32.875 91.73 68.41l4.43 8.582 4.43-8.582c18.496-35.836 53.102-61.473 92.563-68.574l13.136-2.364zm0 0" fill="#fdbf00"/><path d="M353.809 50.535c-27.774-16.52-62.813-25.617-98.657-25.617v111.957l4.43-8.578c18.496-35.836 53.102-61.473 92.563-68.574l13.136-2.364zm0 0" fill="#ff9100"/><path d="M512 52.684l-31.645 50.355c18.72 23.184 29.95 52.645 29.95 84.7 0 74.46-60.586 135.05-135.051 135.05-38.492 0-73.277-16.195-97.906-42.121l-22.196 51.238-22.195-51.238c-24.629 25.926-59.414 42.121-97.906 42.121C60.59 322.79 0 262.2 0 187.74c0-32.891 11.832-63.071 31.445-86.524L.945 52.684h111.91C147.918 20.062 201.762 0 255.152 0c55.657 0 108.301 19.594 142.36 52.684zm-31.594 135.054c0-57.98-47.176-105.152-105.152-105.152-57.977 0-105.152 47.172-105.152 105.152 0 57.977 47.175 105.149 105.152 105.149 57.976 0 105.152-47.172 105.152-105.149zM351.266 54.816c-26.762-15.914-60.59-24.914-96.114-24.914-33.918 0-67.863 9.207-95.242 25.086 41.531 7.754 76.434 34.586 95.242 71.024 18.938-36.688 54.192-63.649 96.114-71.196zM240.203 187.738c0-57.98-47.176-105.152-105.152-105.152-57.977 0-105.149 47.172-105.149 105.152 0 57.977 47.172 105.149 105.149 105.149 57.976 0 105.152-47.172 105.152-105.149zm0 0" fill="#444"/><path d="M375.254 116.613c39.21 0 71.113 31.903 71.113 71.125 0 39.207-31.902 71.114-71.113 71.114s-71.113-31.907-71.113-71.114c0-39.222 31.902-71.125 71.113-71.125zm41.215 71.125c0-22.734-18.489-41.226-41.215-41.226-22.723 0-41.215 18.492-41.215 41.226 0 22.723 18.492 41.211 41.215 41.211 22.726 0 41.215-18.488 41.215-41.21zm0 0" fill="#444"/><path d="M375.96 172.059c8.642 0 15.68 7.035 15.68 15.68 0 8.64-7.038 15.675-15.68 15.675-8.64 0-15.675-7.035-15.675-15.676 0-8.644 7.035-15.68 15.676-15.68zm0 0" fill="#9bdd39"/><path d="M135.05 116.613c39.22 0 71.114 31.903 71.114 71.125 0 39.207-31.894 71.114-71.113 71.114s-71.113-31.907-71.113-71.114c0-39.222 31.894-71.125 71.113-71.125zm41.216 71.125c0-22.734-18.489-41.226-41.215-41.226-22.723 0-41.211 18.492-41.211 41.226 0 22.723 18.488 41.211 41.21 41.211 22.727 0 41.216-18.488 41.216-41.21zm0 0" fill="#444"/><path d="M135.05 172.059c-8.64 0-15.675 7.035-15.675 15.675 0 8.645 7.035 15.676 15.676 15.676 8.644 0 15.676-7.031 15.676-15.676 0-8.64-7.032-15.675-15.676-15.675zm0 0" fill="#ff0059"/><path d="M375.254 116.613c39.21 0 71.113 31.903 71.113 71.125 0 39.207-31.902 71.114-71.113 71.114s-71.113-31.907-71.113-71.114c0-39.222 31.902-71.125 71.113-71.125zm41.215 71.125c0-22.734-18.489-41.226-41.215-41.226-22.723 0-41.215 18.492-41.215 41.226 0 22.723 18.492 41.211 41.215 41.211 22.726 0 41.215-18.488 41.215-41.21zm0 0" fill="#292929"/><path d="M375.96 172.059c8.642 0 15.68 7.035 15.68 15.68 0 8.64-7.038 15.675-15.68 15.675-8.64 0-15.675-7.035-15.675-15.676 0-8.644 7.035-15.68 15.676-15.68zm0 0" fill="#93bf00"/><path d="M135.05 116.613c39.22 0 71.114 31.903 71.114 71.125 0 39.207-31.894 71.114-71.113 71.114s-71.113-31.907-71.113-71.114c0-39.222 31.894-71.125 71.113-71.125zm41.216 71.125c0-22.734-18.489-41.226-41.215-41.226-22.723 0-41.211 18.492-41.211 41.226 0 22.723 18.488 41.211 41.21 41.211 22.727 0 41.216-18.488 41.216-41.21zm0 0" fill="#444"/><path d="M135.05 172.059c-8.64 0-15.675 7.035-15.675 15.675 0 8.645 7.035 15.676 15.676 15.676 8.644 0 15.676-7.031 15.676-15.676 0-8.64-7.032-15.675-15.676-15.675zm0 0" fill="#ff0059"/><path d="M512 52.684H397.512C363.453 19.594 310.809 0 255.152 0v29.902c35.524 0 69.352 9 96.114 24.914-41.922 7.547-77.176 34.508-96.114 71.196v205.894l22.196-51.238c24.629 25.926 59.414 42.121 97.906 42.121 74.465 0 135.05-60.59 135.05-135.05 0-32.055-11.23-61.516-29.949-84.7zm-31.594 135.054c0 57.977-47.176 105.149-105.152 105.149-57.977 0-105.152-47.172-105.152-105.149 0-57.98 47.175-105.152 105.152-105.152 57.976 0 105.152 47.172 105.152 105.152zm0 0" fill="#292929"/></svg>